<svg width="56" height="46" viewBox="0 0 56 46" fill="none" xmlns="http://www.w3.org/2000/svg">
    <g clip-path="url(#clip0_222_401)">
        <path d="M29.2692 37.463C29.0276 37.2627 28.8358 37.0247 28.705 36.7626C28.5742 36.5005 28.5069 36.2195 28.5069 35.9357C28.5069 35.6519 28.5742 35.3709 28.705 35.1088C28.8358 34.8467 29.0276 34.6087 29.2692 34.4083L40.3907 25.1562L8.63974 25.1562C7.95232 25.1562 7.29306 24.9291 6.80698 24.5247C6.3209 24.1203 6.04783 23.5719 6.04783 23C6.04783 22.4281 6.3209 21.8797 6.80698 21.4753C7.29306 21.0709 7.95232 20.8437 8.63974 20.8437L40.3907 20.8437L29.2692 11.588C28.7823 11.183 28.5087 10.6336 28.5087 10.0607C28.5087 9.48782 28.7823 8.93842 29.2692 8.53334C29.7561 8.12827 30.4165 7.9007 31.1051 7.9007C31.7937 7.9007 32.4542 8.12827 32.9411 8.53334L48.4925 21.4708C48.7342 21.6712 48.9259 21.9092 49.0567 22.1713C49.1875 22.4334 49.2549 22.7144 49.2549 22.9982C49.2549 23.282 49.1875 23.563 49.0567 23.8251C48.9259 24.0872 48.7342 24.3252 48.4925 24.5255L32.9411 37.463C32.7003 37.664 32.4141 37.8235 32.0991 37.9324C31.784 38.0412 31.4463 38.0972 31.1051 38.0972C30.764 38.0972 30.4262 38.0412 30.1112 37.9324C29.7961 37.8235 29.51 37.664 29.2692 37.463Z" fill="#5B5B5B"/>
    </g>
    <defs>
        <clipPath id="clip0_222_401">
            <rect width="46" height="55.2941" fill="white" transform="matrix(0 1 -1 0 55.2939 0)"/>
        </clipPath>
    </defs>
</svg>
