<svg width="50" height="46" viewBox="0 0 50 46" fill="none" xmlns="http://www.w3.org/2000/svg">
    <path d="M23.5331 8.53695C23.7516 8.73728 23.925 8.97531 24.0433 9.23741C24.1616 9.4995 24.2224 9.78051 24.2224 10.0643C24.2224 10.3481 24.1616 10.6291 24.0433 10.8912C23.925 11.1533 23.7516 11.3913 23.5331 11.5916L13.4765 20.8438H42.1874C42.809 20.8438 43.4051 21.0709 43.8447 21.4753C44.2842 21.8797 44.5311 22.4281 44.5311 23C44.5311 23.5719 44.2842 24.1203 43.8447 24.5247C43.4051 24.9291 42.809 25.1563 42.1874 25.1563H13.4765L23.5331 34.412C23.9734 34.817 24.2208 35.3664 24.2208 35.9393C24.2208 36.5122 23.9734 37.0616 23.5331 37.4666C23.0928 37.8717 22.4956 38.0993 21.8729 38.0993C21.2503 38.0993 20.6531 37.8717 20.2128 37.4666L6.15029 24.5291C5.93179 24.3288 5.75842 24.0908 5.64012 23.8287C5.52183 23.5666 5.46094 23.2856 5.46094 23.0018C5.46094 22.718 5.52183 22.437 5.64012 22.1749C5.75842 21.9128 5.93179 21.6748 6.15029 21.4745L20.2128 8.53695C20.4305 8.33594 20.6893 8.17644 20.9741 8.06761C21.259 7.95878 21.5645 7.90275 21.8729 7.90275C22.1814 7.90275 22.4869 7.95878 22.7717 8.06761C23.0566 8.17644 23.3154 8.33594 23.5331 8.53695Z" fill="#5B5B5B"/>
</svg>
