<svg width="18" height="24" viewBox="0 0 18 24" fill="none" xmlns="http://www.w3.org/2000/svg">
	<g clip-path="url(#clip0_463_1250)">
		<path d="M2 23.6345C0.895431 23.6345 0 22.739 0 21.6345V2.36523C0 1.26067 0.895431 0.365234 2 0.365234H15.2857C16.3903 0.365234 17.2857 1.26066 17.2857 2.36523V21.6345C17.2857 22.739 16.3903 23.6345 15.2857 23.6345H2ZM0.664835 20.9696C0.664835 22.0742 1.56027 22.9696 2.66484 22.9696H14.6209C15.7255 22.9696 16.6209 22.0742 16.6209 20.9696V3.03007C16.6209 1.9255 15.7254 1.03007 14.6209 1.03007H13.5816H9.30769V8.54908L11.1122 7.45861L12.9643 8.67567V1.03007H13.6291L13.5816 9.56434L11.1122 8.0221L8.64286 9.56434V1.03007H2.66483C1.56026 1.03007 0.664835 1.9255 0.664835 3.03007V20.9696Z" fill="#0E0E0E"/>
	</g>
	<defs>
		<clipPath id="clip0_463_1250">
			<rect width="17.2857" height="23.2692" transform="translate(0 0.365234)"/>
		</clipPath>
	</defs>
</svg>
