<svg width="22" height="22" viewBox="0 0 22 22" fill="none" xmlns="http://www.w3.org/2000/svg">
	<path d="M0.5 4.03684C0.5 2.79895 0.5 2.18 0.740947 1.70695C0.952875 1.29103 1.29103 0.952875 1.70695 0.740947C2.18 0.5 2.79895 0.5 4.03684 0.5H17.9632C19.2011 0.5 19.82 0.5 20.2931 0.740947C20.709 0.952875 21.0471 1.29103 21.2591 1.70695C21.5 2.18 21.5 2.79895 21.5 4.03684V17.9632C21.5 19.2011 21.5 19.82 21.2591 20.2931C21.0471 20.709 20.709 21.0471 20.2931 21.2591C19.82 21.5 19.2011 21.5 17.9632 21.5H4.03684C2.79895 21.5 2.18 21.5 1.70695 21.2591C1.29103 21.0471 0.952875 20.709 0.740947 20.2931C0.5 19.82 0.5 19.2011 0.5 17.9632V4.03684Z" stroke="#0E0E0E" stroke-linecap="round"/>
	<path d="M18.1842 21.5004L11.5526 4.92146M21.5 2.71094L0.5 7.13199M11.5526 14.3494C11.5526 16.7345 9.18737 18.4101 8.15616 19.0279C8.01359 19.1135 7.85046 19.1586 7.68421 19.1586C7.51796 19.1586 7.35483 19.1135 7.21226 19.0279C6.18105 18.4101 3.81579 16.7345 3.81579 14.3483C3.81579 12.0084 5.69032 10.4478 7.68421 10.4478C9.74774 10.4478 11.5526 12.0084 11.5526 14.3494Z" stroke="#0E0E0E"/>
	<path d="M7.68339 15.4215C8.29381 15.4215 8.78865 14.9266 8.78865 14.3162C8.78865 13.7058 8.29381 13.2109 7.68339 13.2109C7.07297 13.2109 6.57812 13.7058 6.57812 14.3162C6.57812 14.9266 7.07297 15.4215 7.68339 15.4215Z" fill="#0E0E0E"/>
</svg>
