<svg width="38" height="37" viewBox="0 0 38 37" fill="none" xmlns="http://www.w3.org/2000/svg">
	<g clip-path="url(#clip0_361_1107)">
		<path d="M19.0395 7.15065C19.342 7.15065 19.6322 7.27083 19.8461 7.48475C20.06 7.69866 20.1802 7.9888 20.1802 8.29132V12.854C20.1802 13.1565 20.06 13.4467 19.8461 13.6606C19.6322 13.8745 19.342 13.9947 19.0395 13.9947C18.737 13.9947 18.4468 13.8745 18.2329 13.6606C18.019 13.4467 17.8988 13.1565 17.8988 12.854V8.29132C17.8988 7.9888 18.019 7.69866 18.2329 7.48475C18.4468 7.27083 18.737 7.15065 19.0395 7.15065ZM28.1648 25.4013C28.1648 27.8215 27.2034 30.1426 25.4921 31.8539C23.7808 33.5653 21.4597 34.5267 19.0395 34.5267C16.6193 34.5267 14.2982 33.5653 12.5869 31.8539C10.8756 30.1426 9.91415 27.8215 9.91415 25.4013V11.7133C9.91415 9.29313 10.8756 6.97206 12.5869 5.26073C14.2982 3.5494 16.6193 2.58798 19.0395 2.58798C21.4597 2.58798 23.7808 3.5494 25.4921 5.26073C27.2034 6.97206 28.1648 9.29313 28.1648 11.7133V25.4013ZM19.0395 0.306641C16.0143 0.306641 13.1129 1.50841 10.9738 3.64758C8.83458 5.78675 7.63281 8.68808 7.63281 11.7133V25.4013C7.63281 28.4266 8.83458 31.3279 10.9738 33.4671C13.1129 35.6063 16.0143 36.808 19.0395 36.808C22.0647 36.808 24.9661 35.6063 27.1052 33.4671C29.2444 31.3279 30.4462 28.4266 30.4462 25.4013V11.7133C30.4462 8.68808 29.2444 5.78675 27.1052 3.64758C24.9661 1.50841 22.0647 0.306641 19.0395 0.306641Z" fill="#606060"/>
	</g>
	<defs>
		<clipPath id="clip0_361_1107">
			<rect width="36.5014" height="36.5014" fill="white" transform="translate(0.789062 0.306641)"/>
		</clipPath>
	</defs>
</svg>
