<svg width="38" height="38" viewBox="0 0 38 38" fill="none" xmlns="http://www.w3.org/2000/svg">
	<path fill-rule="evenodd" clip-rule="evenodd" d="M19.0389 9.93359C19.3414 9.93359 19.6315 10.0538 19.8454 10.2677C20.0593 10.4816 20.1795 10.7717 20.1795 11.0743V24.29L25.0753 19.392C25.1813 19.286 25.3072 19.2018 25.4458 19.1444C25.5844 19.087 25.7329 19.0575 25.8829 19.0575C26.0329 19.0575 26.1814 19.087 26.3199 19.1444C26.4585 19.2018 26.5844 19.286 26.6905 19.392C26.7965 19.4981 26.8806 19.624 26.938 19.7625C26.9954 19.9011 27.025 20.0496 27.025 20.1996C27.025 20.3496 26.9954 20.4981 26.938 20.6367C26.8806 20.7752 26.7965 20.9011 26.6905 21.0072L19.8464 27.8512C19.7405 27.9574 19.6146 28.0417 19.476 28.0992C19.3375 28.1567 19.1889 28.1863 19.0389 28.1863C18.8888 28.1863 18.7403 28.1567 18.6017 28.0992C18.4631 28.0417 18.3372 27.9574 18.2313 27.8512L11.3873 21.0072C11.2812 20.9011 11.1971 20.7752 11.1397 20.6367C11.0823 20.4981 11.0527 20.3496 11.0527 20.1996C11.0527 20.0496 11.0823 19.9011 11.1397 19.7625C11.1971 19.624 11.2812 19.4981 11.3873 19.392C11.6014 19.1778 11.8919 19.0575 12.1948 19.0575C12.3448 19.0575 12.4933 19.087 12.6319 19.1444C12.7705 19.2018 12.8964 19.286 13.0024 19.392L17.8982 24.29V11.0743C17.8982 10.7717 18.0184 10.4816 18.2323 10.2677C18.4462 10.0538 18.7363 9.93359 19.0389 9.93359Z" fill="#606060"/>
</svg>
